<svg id="_x33_0" enable-background="new 0 0 64 64" height="512" viewBox="0 0 64 64" width="512" xmlns="http://www.w3.org/2000/svg"><g><g><g><path d="m51 31-2 4h-3v-2.93c.1-.07.22-.11.34-.14l2.66-.53z" fill="#ff826e"/></g><g><path d="m49 35 1.69 7.61v.01c-.17.28-.34.56-.52.83-.89 1.33-1.93 2.55-3.12 3.64l-2.05-3.69 1-8.4z" fill="#ff826e"/></g><g><path d="m13 15c-.55 0-1.05.22-1.41.59-.37.36-.59.86-.59 1.41 0 0-3-2-3-6 0-2.31.79-4.79 2.42-6.42l.07-.07c1.61-1.61 3.78-2.51 6.05-2.51h8.05c.9 0 1.77.36 2.41 1s1 1.51 1 2.41c0 1.06-.25 2.09-.71 3-.46.92-1.13 1.73-1.97 2.36-.72-1.07-1.94-1.77-3.32-1.77h-5c-2.21 0-4 1.79-4 4z" fill="#b27946"/></g><g><path d="m62 13v5.29c0 2.27-1.28 4.35-3.32 5.37l-2.68 1.34c-.85-.85-1.46-1.9-1.75-3.06-.16-.65-.25-1.32-.25-1.94 0 0 .5-.25 1-.75s1-1.25 1-2.25c0-1.66-1.34-3-3-3h-1c0-.87-.37-1.54-1.02-2.11-.97-.85-2.63-1.89-4.98-1.89-2 0-4 1-4 1-.25 1.26-.44 2.45-.58 3.54l-2.14-1.71c-1.44-1.16-2.28-2.9-2.28-4.75 0-1.68.68-3.2 1.78-4.3s2.62-1.78 4.3-1.78h4.61c2.12 0 4.15.84 5.65 2.34l2.66 2.66c1.66 0 3.16.67 4.24 1.76 1.09 1.08 1.76 2.58 1.76 4.24z" fill="#656d78"/></g><path d="m61.17 34.34c-.76-1.52-1.99-2.75-3.51-3.51l-1.66-.83v-5c-.85-.85-1.46-1.9-1.75-3.06-.16-.65-.25-1.32-.25-1.94 0 0 .5-.25 1-.75s1-1.25 1-2.25c0-1.66-1.34-3-3-3h-1c0-.87-.37-1.54-1.02-2.11-.97-.85-2.63-1.89-4.98-1.89-2 0-4 1-4 1-.25 1.26-.44 2.45-.58 3.54-.42 3.22-.42 5.46-.42 5.46h2v1.7c0 1.44.72 2.78 1.92 3.58.7.47 1.53.72 2.38.72h.27c.29 0 .57-.03.85-.08l.58-.12v5.6l2-.4-2 4 1.69 7.61v.01c-.17.28-.34.56-.52.83-.89 1.33-1.93 2.55-3.12 3.64l-2.05-3.69 1-8.4v-2.93c-.08.05-.16.11-.22.19l-1.21 1.4c-1.08 1.26-1.98 2.66-2.69 4.13-.1.2-.19.4-.28.61l-7.6 7.6v-6.18c0-3.7-1.6-7.22-4.38-9.65-1.16-1.02-2.5-1.81-3.93-2.35-.3-.11-.6-.21-.9-.3-1.16-.34-2.37-.52-3.61-.52h-.18-1v-3.03c.18.02.37.03.55.03 1.04 0 2.03-.32 2.86-.88.82-.56 1.49-1.36 1.87-2.33.48-1.18.72-2.45.72-3.72v-4.07c0-.82-.25-1.59-.68-2.23-.72-1.07-1.94-1.77-3.32-1.77h-5c-2.21 0-4 1.79-4 4v2c-.55 0-1.05.22-1.41.59-.37.36-.59.86-.59 1.41 0 1.28.51 2.51 1.41 3.41l.59.59v6h-.7c-.74 0-1.47.08-2.19.24-1.36.29-2.65.86-3.8 1.68-1.35.96-2.43 2.23-3.17 3.66-.74 1.44-1.14 3.06-1.14 4.72v8.7c0 3.27 1.57 6.17 4 8v8h22v-6h-1.89c.69 0 1.33-.18 1.89-.49v.49h3.69c2.12 0 4.15-.84 5.65-2.34l2.66-2.66v11h6 8 8v-24.15c0-1.22-.28-2.42-.83-3.51zm-33.17 14.2c-.59-.34-1.27-.54-2-.54h2z" fill="#f0d0b4"/></g><g><path d="m59.131 24.553c2.387-1.194 3.869-3.593 3.869-6.261v-5.292c0-3.716-2.911-6.766-6.573-6.987l-2.377-2.377c-1.699-1.7-3.96-2.636-6.363-2.636h-4.608c-3.904 0-7.079 3.175-7.079 7.079 0 2.162.968 4.176 2.657 5.527l1.701 1.361c-.351 2.917-.358 4.916-.358 5.033v1h2v.697c0 1.777.883 3.426 2.361 4.412.875.583 1.892.891 2.942.891h.271c.143 0 .284-.031.426-.042v3.622l-1.858.372c-.436.087-.836.322-1.125.66l-1.201 1.401c-1.245 1.452-2.253 3.069-3.029 4.787l-5.787 5.786v-3.771c0-3.984-1.72-7.773-4.718-10.396-2.518-2.205-5.749-3.419-9.097-3.419h-.185v-1.034c2.32-.171 4.337-1.615 5.211-3.802.524-1.308.789-2.685.789-4.094v-4.07c0-.707-.151-1.377-.417-1.987 1.526-1.444 2.417-3.479 2.417-5.599 0-1.179-.459-2.288-1.293-3.121-.833-.834-1.942-1.293-3.121-1.293h-8.05c-2.547 0-4.946.997-6.82 2.871-1.701 1.7-2.716 4.365-2.716 7.129 0 3.581 2.104 5.735 3.025 6.508.117 1.365.702 2.634 1.682 3.614l.293.292v4.598c-2.26.059-4.422.775-6.267 2.093-2.964 2.117-4.733 5.554-4.733 9.196v8.699c0 3.409 1.559 6.46 4 8.479v8.521h24v-6h2.687c2.404 0 4.664-.936 6.364-2.636l.95-.95v9.586h24v-25.146c0-1.368-.323-2.737-.935-3.959-.852-1.702-2.258-3.108-3.96-3.96l-1.106-.553v-3.764zm-19.225-12.509c-1.211-.969-1.906-2.415-1.906-3.965 0-2.801 2.278-5.079 5.079-5.079h4.608c1.87 0 3.627.728 4.95 2.05l2.949 2.95h.414c2.757 0 5 2.243 5 5v5.292c0 1.906-1.059 3.62-2.764 4.472l-1.996.998c-.487-.621-.837-1.32-1.017-2.057-.098-.401-.165-.797-.198-1.17.754-.545 1.975-1.707 1.975-3.535 0-2.206-1.794-4-4-4h-.136c-.197-.693-.606-1.316-1.224-1.861-1.107-.975-2.985-2.139-5.64-2.139-2.21 0-4.357 1.061-4.447 1.105l-.438.219-.096.479c-.128.64-.239 1.262-.337 1.862zm8.476 21.956h-1.386l.003-1.18 2.193-.438zm-1.097 11.454-1.254-2.257.857-7.197h1.31l1.429 6.43c-.676 1.082-1.457 2.095-2.342 3.024zm3.772-5.805-1.004-4.519 1.623-3.245 1.852-.37-1.73 6.054c-.204.713-.46 1.403-.741 2.08zm-1.057-13.029 3.196-.639-.393-1.961-4.582.917c-.212.042-.429.063-.647.063h-.271c-.654 0-1.288-.192-1.832-.555-.921-.613-1.471-1.641-1.471-2.748v-2.697h-1.971c.062-1.398.253-4.125.853-7.297.642-.263 1.899-.703 3.118-.703 2.031 0 3.469.892 4.318 1.64.472.416.682.835.682 1.36v1h2c1.103 0 2 .897 2 2 0 1.342-1.438 2.101-1.447 2.105l-.553.277v.618c0 .683.094 1.416.28 2.178.288 1.18.879 2.285 1.72 3.22v3.782l-5 1zm-5 8.121v.2l-.628 5.271-1.351-2.432c.553-1.073 1.214-2.09 1.979-3.039zm-12 5.074v5.771l-.535.535c-.559.559-1.333.879-2.123.879h-1.342v-6h-2v6h-.994c-.002 0-.003 0-.005 0-.001 0-.001 0-.001 0h-7v-2.802l6.356-15.437c1.312.495 2.536 1.223 3.609 2.162 2.564 2.244 4.035 5.485 4.035 8.892zm-4 12.293c.001.769-.299 1.495-.847 2.043-.544.545-1.263.845-2.026.849h-1.127v.001h-2v-6.001h2 1.006c1.648.003 2.991 1.354 2.994 3.108zm-9.618-24.108-1 2h-1.764l-1-2zm1.282 6.902-.624-3.746 1.569-3.137c.61.022 1.215.084 1.808.198zm-7.282-6.902 1.578 3.156-.497 2.98-2.862-6.082c.234-.018.464-.054.7-.054zm3.465 4h1.305l1.068 6.408-1.282 3.114-1.978-4.204zm8.153-14.93c0 1.153-.217 2.281-.646 3.351-.626 1.567-2.122 2.58-3.81 2.58-.813 0-1.6-.238-2.276-.689l-1.714-1.143-1.109 1.664 1.714 1.143c.568.378 1.191.644 1.84.814v1.21h-5v-5.414l-.879-.879c-.722-.723-1.12-1.685-1.12-2.707 0-.551.449-1 1-1h1v-3c0-1.654 1.346-3 3-3h5c1.654 0 3 1.346 3 3zm-14.428-1.828c-.72-.841-1.572-2.253-1.572-4.242 0-2.245.796-4.382 2.194-5.78 1.432-1.431 3.329-2.22 5.342-2.22h8.05c.635 0 1.258.258 1.707.707s.707 1.072.707 1.707c0 1.476-.589 2.891-1.598 3.944-.894-.836-2.085-1.358-3.402-1.358h-5c-2.757 0-5 2.243-5 5v1.171c-.578.205-1.074.583-1.428 1.071zm-7.572 30.758v-8.699c0-2.998 1.456-5.827 3.895-7.569.822-.587 1.721-1.023 2.667-1.315l7.438 15.807v2.776h-6v-6h-2v6c0 1.103.895 2 1.994 2h10.006v6.001l-9-.001c-4.962 0-9-4.037-9-9zm24 15h-20v-5.214c1.502.771 3.199 1.214 5 1.214l14.111.001h.001c.005 0 .01-.001.015-.001h.873zm9.636-8.05c-1.322 1.322-3.08 2.05-4.95 2.05h-1.656c.622-.841.972-1.855.97-2.989s-.395-2.17-1.032-3.011h.374c1.317 0 2.606-.534 3.538-1.465l5.551-5.551c-.275 1.324-.431 2.676-.431 4.044v4.558zm4.364-6.922c0-2.037.357-4.039 1.019-5.934l3.763 6.773c-.137.116-.266.239-.407.352l-.375.301v13.48h-4zm16.211-14.304c1.318.659 2.406 1.748 3.065 3.065.474.946.724 2.006.724 3.065v23.146h-6v-16h-2v16h-6v-12.526c3.238-2.712 5.557-6.283 6.721-10.355l2.013-7.045.126-.025z"/><circle cx="50" cy="56" r="1"/><circle cx="50" cy="52" r="1"/></g></g></svg>