<svg height="512" viewBox="0 0 64 64" width="512" xmlns="http://www.w3.org/2000/svg"><path d="m33 26 14-6v-10h-7v-7h-35a2.006 2.006 0 0 0 -2 2v54a2.006 2.006 0 0 0 2 2h40a2.006 2.006 0 0 0 2-2v-3l-5.62-4.02a19.978 19.978 0 0 1 -8.38-16.27z" fill="#ffeb99"/><g fill="#57a4ff"><path d="m7 45h22v12h-22z"/><path d="m7 7h28v12h-28z"/><path d="m61 26v9.71a19.978 19.978 0 0 1 -8.38 16.27l-5.62 4.02-5.62-4.02a19.978 19.978 0 0 1 -8.38-16.27v-9.71l14-6z"/></g><path d="m57 29v6.31a16 16 0 0 1 -6 12.49l-4 3.2-4-3.2a16 16 0 0 1 -6-12.49v-6.31l10-4z" fill="#ff7956"/><path d="m47 8v2h-7v-7h2z" fill="#57a4ff"/><path d="m61.394 25.081-13.394-5.74v-11.341a1 1 0 0 0 -.293-.707l-5-5a1 1 0 0 0 -.707-.293h-37a3 3 0 0 0 -3 3v54a3 3 0 0 0 3 3h40a3 3 0 0 0 3-3v-2.486l5.206-3.714a21.04 21.04 0 0 0 8.794-17.092v-9.708a1 1 0 0 0 -.606-.919zm-15.394-16.667v.586h-5v-5h.586zm-1 51.586h-40a1 1 0 0 1 -1-1v-54a1 1 0 0 1 1-1h34v6a1 1 0 0 0 1 1h6v8.341l-13.394 5.74a1 1 0 0 0 -.606.919v9.708a21.04 21.04 0 0 0 8.794 17.092l5.206 3.714v2.486a1 1 0 0 1 -1 1zm15-24.292a19.037 19.037 0 0 1 -7.956 15.461l-5.044 3.602-5.044-3.6a19.037 19.037 0 0 1 -7.956-15.463v-9.049l13-5.571 13 5.571z"/><path d="m46.628 24.071-10 4a1 1 0 0 0 -.628.929v6.31a16.919 16.919 0 0 0 6.38 13.275l3.995 3.2a1 1 0 0 0 1.25 0l3.995-3.2a16.919 16.919 0 0 0 6.38-13.275v-6.31a1 1 0 0 0 -.628-.929l-10-4a1.007 1.007 0 0 0 -.744 0zm9.372 5.606v5.633a14.924 14.924 0 0 1 -5.629 11.712l-3.371 2.698-3.371-2.7a14.924 14.924 0 0 1 -5.629-11.71v-5.633l9-3.6z"/><path d="m7 20h28a1 1 0 0 0 1-1v-12a1 1 0 0 0 -1-1h-28a1 1 0 0 0 -1 1v12a1 1 0 0 0 1 1zm1-12h26v10h-26z"/><path d="m29 44h-22a1 1 0 0 0 -1 1v12a1 1 0 0 0 1 1h22a1 1 0 0 0 1-1v-12a1 1 0 0 0 -1-1zm-1 12h-20v-10h20z"/><path d="m6 25h24v2h-24z"/><path d="m6 31h24v2h-24z"/><path d="m6 37h24v2h-24z"/></svg>