<svg id="Layer_3" enable-background="new 0 0 64 64" height="512" viewBox="0 0 64 64" width="512" xmlns="http://www.w3.org/2000/svg"><g><path d="m30 50h4v7h-4z" fill="#f5b953"/><path d="m47 27c4.971 0 9-4.029 9-9s-4.029-9-9-9c-1.344 0-2.614.303-3.759.831-1.696-4.569-6.082-7.831-11.241-7.831s-9.545 3.262-11.241 7.831c-1.145-.528-2.415-.831-3.759-.831-4.971 0-9 4.029-9 9s4.029 9 9 9" fill="#3d98f7"/><path d="m19 39h26v5h-26z" fill="#2d4d83"/><path d="m19 28h26v5h-26z" fill="#2d4d83"/><g fill="#4472b2"><path d="m46 43h-28c-.552 0-1 .448-1 1v6c0 .552.448 1 1 1h28c.552 0 1-.448 1-1v-6c0-.552-.448-1-1-1z"/><path d="m46 32h-28c-.552 0-1 .448-1 1v6c0 .552.448 1 1 1h28c.552 0 1-.448 1-1v-6c0-.552-.448-1-1-1z"/><path d="m46 21h-28c-.552 0-1 .448-1 1v6c0 .552.448 1 1 1h28c.552 0 1-.448 1-1v-6c0-.552-.448-1-1-1z"/></g><path d="m9 57h46v4h-46z" fill="#f5b953"/><g><path d="m19 45h2v4h-2z" fill="#fff"/></g><g><path d="m22 45h2v4h-2z" fill="#fff"/></g><g><path d="m25 45h2v4h-2z" fill="#fff"/></g><g><path d="m42 45h2v2h-2z" fill="#fff"/></g><g><path d="m39 45h2v2h-2z" fill="#fff"/></g><g><path d="m19 34h2v4h-2z" fill="#fff"/></g><g><path d="m22 34h2v4h-2z" fill="#fff"/></g><g><path d="m25 34h2v4h-2z" fill="#fff"/></g><g><path d="m42 34h2v2h-2z" fill="#fff"/></g><g><path d="m39 34h2v2h-2z" fill="#fff"/></g><g><path d="m19 23h2v4h-2z" fill="#fff"/></g><g><path d="m22 23h2v4h-2z" fill="#fff"/></g><g><path d="m25 23h2v4h-2z" fill="#fff"/></g><g><path d="m42 23h2v2h-2z" fill="#fff"/></g><g><path d="m39 23h2v2h-2z" fill="#fff"/></g><path d="m23 56h18v6h-18z" fill="#2d4d83"/><g><path d="m33.75 7.22c-.567-.146-1.156-.22-1.75-.22v-2c.762 0 1.519.095 2.25.284z" fill="#fff"/></g><g><path d="m41 14h-2c0-2.491-1.341-4.815-3.501-6.064l1.002-1.731c2.775 1.605 4.499 4.592 4.499 7.795z" fill="#fff"/></g><path d="m19 45h2v4h-2z"/><path d="m22 45h2v4h-2z"/><path d="m25 45h2v4h-2z"/><path d="m42 45h2v2h-2z"/><path d="m39 45h2v2h-2z"/><path d="m19 34h2v4h-2z"/><path d="m22 34h2v4h-2z"/><path d="m25 34h2v4h-2z"/><path d="m42 34h2v2h-2z"/><path d="m39 34h2v2h-2z"/><path d="m48 28v-.051c5.046-.503 9-4.773 9-9.949 0-5.514-4.486-10-10-10-1.101 0-2.178.18-3.216.537-2.113-4.547-6.726-7.537-11.784-7.537s-9.671 2.99-11.784 7.537c-1.038-.357-2.115-.537-3.216-.537-5.514 0-10 4.486-10 10 0 5.177 3.954 9.446 9 9.949v.051c0 1.103.897 2 2 2v1c-1.103 0-2 .897-2 2v6c0 1.103.897 2 2 2v1c-1.103 0-2 .897-2 2v6c0 1.103.897 2 2 2h11v3h-6c-.552 0-1 .448-1 1h-13v2h13v2h-13v2h13c0 .552.448 1 1 1h18c.552 0 1-.448 1-1h13v-2h-13v-2h13v-2h-13c0-.552-.448-1-1-1h-6v-3h11c1.103 0 2-.897 2-2v-6c0-1.103-.897-2-2-2v-1c1.103 0 2-.897 2-2v-6c0-1.103-.897-2-2-2v-1c1.103 0 2-.897 2-2zm-2 0h-28v-6h28zm-30-6v3.931c-3.94-.495-7-3.859-7-7.931 0-4.411 3.589-8 8-8 1.153 0 2.277.249 3.341.739.252.116.542.122.8.016.257-.106.459-.315.556-.576 1.594-4.294 5.734-7.179 10.303-7.179s8.709 2.885 10.303 7.179c.097.261.298.47.556.576s.549.101.8-.016c1.064-.49 2.188-.739 3.341-.739 4.411 0 8 3.589 8 8 0 4.072-3.06 7.436-7 7.931v-3.931c0-1.103-.897-2-2-2h-28c-1.103 0-2 .897-2 2zm24 39h-16v-4h16zm-7-6h-2v-3h2zm13-5h-28v-6h28zm-2-8h-24v-1h24zm2-3h-28v-6h28zm-2-8h-24v-1h24z"/><path d="m19 23h2v4h-2z"/><path d="m22 23h2v4h-2z"/><path d="m25 23h2v4h-2z"/><path d="m42 23h2v2h-2z"/><path d="m39 23h2v2h-2z"/><path d="m34.25 5.284c-.731-.189-1.488-.284-2.25-.284v2c.594 0 1.183.074 1.75.22z"/><path d="m39 14h2c0-3.203-1.724-6.19-4.499-7.795l-1.002 1.731c2.16 1.249 3.501 3.573 3.501 6.064z"/></g></svg>