<svg id="Capa_1" enable-background="new 0 0 496.998 496.998" height="512" viewBox="0 0 496.998 496.998" width="512" xmlns="http://www.w3.org/2000/svg"><path d="m488.093 426.187h-479.188c-4.918 0-8.905 3.987-8.905 8.905v23.136c0 4.918 3.987 8.905 8.905 8.905h479.189c4.918 0 8.905-3.987 8.905-8.905v-23.136c-.001-4.918-3.988-8.905-8.906-8.905z" fill="#c2d0da"/><path d="m488.092 426.187h-8.515v15.397c0 4.919-3.987 8.906-8.906 8.906h-470.671v7.736c0 4.919 3.987 8.906 8.906 8.906h479.186c4.919 0 8.906-3.987 8.906-8.906v-23.133c0-4.918-3.988-8.906-8.906-8.906z" fill="#bfbfbf"/><path d="m192.735 344.99h112.527v69.134h-112.527z" fill="#586b76"/><path d="m274.915 344.99h30.348v69.134h-30.348z" fill="#465961"/><path d="m334.633 437.09h-171.268c-3.852 0-6.975-3.123-6.975-6.975v-18.462c0-3.852 3.123-6.975 6.975-6.975h171.268c3.852 0 6.975 3.123 6.975 6.975v18.462c-.001 3.852-3.123 6.975-6.975 6.975z" fill="#586b76"/><path d="m334.632 404.678h-11.372v9.23c0 3.852-3.123 6.976-6.976 6.976h-159.893v9.23c0 3.853 3.123 6.976 6.976 6.976h171.265c3.853 0 6.976-3.123 6.976-6.976v-18.46c-.001-3.852-3.124-6.976-6.976-6.976z" fill="#465961"/><path d="m480.425 360.391h-463.852c-9.153 0-16.573-7.42-16.573-16.573v-297.379c0-9.153 7.42-16.573 16.573-16.573h463.851c9.153 0 16.573 7.42 16.573 16.573v297.379c.001 9.153-7.419 16.573-16.572 16.573z" fill="#586b76"/><path d="m480.422 29.866h-6.428v291.583c0 9.155-7.421 16.576-16.576 16.576h-457.418v5.791c0 9.155 7.421 16.576 16.576 16.576h463.846c9.155 0 16.576-7.421 16.576-16.576v-297.375c0-9.154-7.422-16.575-16.576-16.575z" fill="#465961"/><path d="m458.338 305.68h-419.678c-2.645 0-4.789-2.144-4.789-4.789v-229.693c0-2.645 2.144-4.789 4.789-4.789h419.677c2.645 0 4.789 2.144 4.789 4.789v229.693c.001 2.645-2.143 4.789-4.788 4.789z" fill="#b3d8fb"/><path d="m458.337 66.408h-42.077v218.827c0 2.645-2.145 4.79-4.79 4.79h-377.599v10.865c0 2.645 2.145 4.79 4.79 4.79h419.676c2.646 0 4.79-2.144 4.79-4.79v-229.691c0-2.646-2.145-4.791-4.79-4.791z" fill="#89c6fc"/><circle cx="432.163" cy="385.97" fill="#fff0e1" r="51.12"/><path d="m454.536 339.998c4.738 7.753 7.471 16.866 7.471 26.618 0 28.233-22.887 51.12-51.12 51.12-8.025 0-15.615-1.854-22.374-5.149 8.98 14.694 25.168 24.502 43.649 24.502 28.233 0 51.12-22.887 51.12-51.12.001-20.207-11.727-37.672-28.746-45.971z" fill="#ffeccf"/><path d="m391.516 101.171h-96.177c-4.418 0-8 3.582-8 8v96.177c0 4.418 3.582 8 8 8h96.177c4.418 0 8-3.582 8-8v-96.177c0-4.418-3.582-8-8-8z" fill="#e5ecf1"/><path d="m391.516 101.171h-96.177c-4.418 0-8 3.582-8 8v28.951h112.177v-28.951c0-4.418-3.582-8-8-8z" fill="#0a81f9"/><path d="m391.514 101.171h-15.382v80.592c0 4.419-3.582 8.001-8.001 8.001h-80.793v15.582c0 4.419 3.582 8.001 8.001 8.001h96.175c4.419 0 8.001-3.582 8.001-8.001v-96.175c.001-4.417-3.582-8-8.001-8z" fill="#c2d0da"/><path d="m391.514 101.171h-15.382v36.951h23.383v-28.949c.001-4.419-3.582-8.002-8.001-8.002z" fill="#0571f9"/><path d="m312.265 125.011h-208.704c-4.418 0-8 3.582-8 8v118.517c0 4.418 3.582 8 8 8h208.704c4.418 0 8-3.582 8-8v-118.517c0-4.418-3.582-8-8-8z" fill="#e5ecf1"/><path d="m312.265 125.011h-208.704c-4.418 0-8 3.582-8 8v27.415h224.704v-27.415c0-4.418-3.582-8-8-8z" fill="#0a81f9"/><path d="m312.264 125.011h-15.382v102.932c0 4.419-3.582 8.001-8.001 8.001h-193.32v15.583c0 4.419 3.582 8.001 8.001 8.001h208.702c4.419 0 8.001-3.582 8.001-8.001v-118.514c0-4.419-3.582-8.002-8.001-8.002z" fill="#c2d0da"/><path d="m312.264 125.011h-15.382v35.415h23.383v-27.414c0-4.418-3.582-8.001-8.001-8.001z" fill="#0571f9"/><path d="m436.941 385.513v-18.897c0-4.143-3.358-7.501-7.501-7.501s-7.501 3.358-7.501 7.501v22.004c0 1.99.79 3.897 2.197 5.305l14.701 14.701c1.465 1.464 3.384 2.197 5.304 2.197s3.839-.733 5.304-2.198c2.93-2.929 2.93-7.678 0-10.608z" fill="#586b76"/><path d="m127.891 197.899h80.022c4.143 0 7.501-3.358 7.501-7.501s-3.358-7.501-7.501-7.501h-80.022c-4.143 0-7.501 3.358-7.501 7.501s3.358 7.501 7.501 7.501z" fill="#8c9ba6"/><path d="m127.891 228.992h36.339c4.143 0 7.501-3.358 7.501-7.501s-3.358-7.501-7.501-7.501h-36.339c-4.143 0-7.501 3.358-7.501 7.501s3.358 7.501 7.501 7.501z" fill="#8c9ba6"/><path d="m432.163 444.59c-32.323 0-58.62-26.297-58.62-58.62s26.297-58.62 58.62-58.62c32.324 0 58.621 26.297 58.621 58.62s-26.298 58.62-58.621 58.62zm0-102.241c-24.052 0-43.62 19.568-43.62 43.62s19.568 43.62 43.62 43.62 43.621-19.568 43.621-43.62-19.569-43.62-43.621-43.62z" fill="#f88604"/></svg>